<mxfile host="app.diagrams.net" modified="2024-07-05T14:13:50.384Z" agent="Mozilla/5.0 (X11; Linux x86_64) AppleWebKit/537.36 (KHTML, like Gecko) Chrome/126.0.0.0 Safari/537.36" etag="HSL5f5h3uOs6dnuxWPm-" version="24.6.4" type="github">
  <diagram name="Page-1" id="hJIKlYoYh9tqUhOvAnFu">
    <mxGraphModel dx="1604" dy="756" grid="0" gridSize="10" guides="1" tooltips="1" connect="1" arrows="1" fold="1" page="0" pageScale="1" pageWidth="850" pageHeight="1100" math="0" shadow="0">
      <root>
        <mxCell id="0" />
        <mxCell id="1" parent="0" />
        <mxCell id="zQOek3tgbETVmvYBOYxM-1" value="&lt;font style=&quot;font-size: 24px;&quot;&gt;Keyboard Decoder (UART Rx)&lt;/font&gt;" style="text;html=1;align=center;verticalAlign=middle;resizable=0;points=[];autosize=1;strokeColor=none;fillColor=none;" parent="1" vertex="1">
          <mxGeometry x="235" y="20" width="350" height="40" as="geometry" />
        </mxCell>
        <mxCell id="zQOek3tgbETVmvYBOYxM-20" style="edgeStyle=orthogonalEdgeStyle;rounded=0;orthogonalLoop=1;jettySize=auto;html=1;exitX=1;exitY=0.25;exitDx=0;exitDy=0;entryX=0.001;entryY=0.479;entryDx=0;entryDy=0;entryPerimeter=0;" parent="1" source="zQOek3tgbETVmvYBOYxM-2" target="zQOek3tgbETVmvYBOYxM-17" edge="1">
          <mxGeometry relative="1" as="geometry" />
        </mxCell>
        <mxCell id="zQOek3tgbETVmvYBOYxM-2" value="&lt;b&gt;&lt;span style=&quot;white-space: pre;&quot;&gt;&#x9;&lt;span style=&quot;white-space: pre;&quot;&gt;&#x9;&lt;/span&gt;&lt;span style=&quot;white-space: pre;&quot;&gt;&#x9;&lt;/span&gt;&lt;/span&gt;UART Rx&lt;/b&gt;&lt;div&gt;&lt;b&gt;always @ (posedge clk, negedge &lt;span style=&quot;white-space: pre;&quot;&gt;&#x9;&lt;/span&gt;&lt;span style=&quot;white-space: pre;&quot;&gt;&#x9;&lt;/span&gt;&lt;span style=&quot;white-space: pre;&quot;&gt;&#x9;&lt;/span&gt;&lt;span style=&quot;white-space: pre;&quot;&gt;&#x9;&lt;/span&gt;&lt;span style=&quot;white-space: pre;&quot;&gt;&#x9;&lt;/span&gt;&lt;span style=&quot;white-space: pre;&quot;&gt;&#x9;&lt;/span&gt;nrst)&lt;/b&gt;&lt;/div&gt;&lt;div&gt;&lt;b&gt;if (~nrst)&lt;/b&gt;&lt;/div&gt;&lt;div&gt;&lt;span style=&quot;white-space: pre;&quot;&gt;&#x9;&lt;/span&gt;clk_count = 0&lt;/div&gt;&lt;div&gt;&lt;span style=&quot;white-space: pre;&quot;&gt;&#x9;&lt;/span&gt;bit_count = 0&lt;/div&gt;&lt;div&gt;&lt;span style=&quot;white-space: pre;&quot;&gt;&#x9;&lt;/span&gt;shift = 0&lt;/div&gt;&lt;div&gt;&lt;span style=&quot;white-space: pre;&quot;&gt;&#x9;&lt;/span&gt;recieving = 0&lt;/div&gt;&lt;div&gt;&lt;span style=&quot;white-space: pre;&quot;&gt;&#x9;&lt;/span&gt;ready = 0&lt;/div&gt;&lt;div&gt;&lt;b&gt;else&lt;/b&gt;&lt;/div&gt;&lt;div&gt;&lt;b&gt;&amp;nbsp; &amp;nbsp; &amp;nbsp; &amp;nbsp; if (~recieving)&lt;/b&gt;&lt;/div&gt;&lt;div&gt;&lt;b&gt;&lt;span style=&quot;white-space: pre;&quot;&gt;&#x9;&lt;span style=&quot;white-space: pre;&quot;&gt;&#x9;&lt;/span&gt;&lt;/span&gt;if (Rx == 0)&lt;/b&gt;&lt;/div&gt;&lt;div&gt;&lt;span style=&quot;white-space: pre;&quot;&gt;&lt;span style=&quot;white-space: pre;&quot;&gt;&#x9;&lt;/span&gt;&#x9;&lt;span style=&quot;white-space: pre;&quot;&gt;&#x9;&lt;/span&gt;&lt;/span&gt;recieving = 1&lt;/div&gt;&lt;div&gt;&lt;span style=&quot;white-space: pre;&quot;&gt;&lt;span style=&quot;white-space: pre;&quot;&gt;&#x9;&lt;/span&gt;&#x9;&lt;span style=&quot;white-space: pre;&quot;&gt;&#x9;&lt;/span&gt;&lt;/span&gt;clk_count = 0&lt;/div&gt;&lt;div&gt;&lt;span style=&quot;white-space: pre;&quot;&gt;&lt;span style=&quot;white-space: pre;&quot;&gt;&#x9;&lt;/span&gt;&#x9;&lt;span style=&quot;white-space: pre;&quot;&gt;&#x9;&lt;/span&gt;&lt;/span&gt;bit_count = 0&lt;/div&gt;&lt;div&gt;&lt;b&gt;&lt;span style=&quot;white-space: pre;&quot;&gt;&#x9;&lt;/span&gt;else&amp;nbsp;&lt;/b&gt;&lt;/div&gt;&lt;blockquote style=&quot;margin: 0 0 0 40px; border: none; padding: 0px;&quot;&gt;&lt;div&gt;&lt;span style=&quot;white-space: pre;&quot;&gt;&#x9;&lt;/span&gt;clk_count ++&lt;/div&gt;&lt;div&gt;&lt;b&gt;&lt;span style=&quot;white-space: pre;&quot;&gt;&#x9;&lt;/span&gt;if(clk_count ==&amp;nbsp; &amp;nbsp; &amp;nbsp;&amp;nbsp;&lt;span style=&quot;white-space: pre;&quot;&gt;&#x9;&lt;/span&gt;&lt;span style=&quot;white-space: pre;&quot;&gt;&#x9;&lt;span style=&quot;white-space: pre;&quot;&gt;&#x9;&lt;/span&gt;&lt;/span&gt;BAUD_RATE - 1)&lt;/b&gt;&lt;/div&gt;&lt;div&gt;&lt;span style=&quot;white-space: pre;&quot;&gt;&#x9;&lt;/span&gt;&lt;span style=&quot;white-space: pre;&quot;&gt;&#x9;&lt;/span&gt;clk_count = 0&lt;/div&gt;&lt;div&gt;&lt;span style=&quot;white-space: pre;&quot;&gt;&#x9;&lt;/span&gt;&lt;span style=&quot;white-space: pre;&quot;&gt;&#x9;&lt;/span&gt;bit_count ++&lt;/div&gt;&lt;div&gt;&lt;b&gt;&lt;span style=&quot;white-space: pre;&quot;&gt;&#x9;&lt;/span&gt;&lt;span style=&quot;white-space: pre;&quot;&gt;&#x9;&lt;/span&gt;if (bit_count == 0)&lt;/b&gt;&lt;/div&gt;&lt;div&gt;&lt;span style=&quot;white-space: pre;&quot;&gt;&#x9;&lt;/span&gt;&lt;span style=&quot;white-space: pre;&quot;&gt;&#x9;&lt;/span&gt;&amp;nbsp; &amp;nbsp; &amp;nbsp;// start bit signal&lt;/div&gt;&lt;div&gt;&lt;b&gt;&lt;span style=&quot;white-space: pre;&quot;&gt;&#x9;&lt;/span&gt;&lt;span style=&quot;white-space: pre;&quot;&gt;&#x9;&lt;/span&gt;else if(bit_count &amp;lt; 9)&lt;/b&gt;&lt;/div&gt;&lt;div&gt;&lt;span style=&quot;white-space: pre;&quot;&gt;&#x9;&lt;/span&gt;&lt;span style=&quot;white-space: pre;&quot;&gt;&#x9;&lt;/span&gt;&amp;nbsp; &amp;nbsp; &amp;nbsp;shift = {Rx, shift[7:1]}&lt;/div&gt;&lt;div&gt;&lt;b&gt;&lt;span style=&quot;white-space: pre;&quot;&gt;&#x9;&lt;/span&gt;&lt;span style=&quot;white-space: pre;&quot;&gt;&#x9;&lt;/span&gt;else&lt;/b&gt;&lt;/div&gt;&lt;div&gt;&lt;span style=&quot;white-space: pre;&quot;&gt;&#x9;&lt;/span&gt;&lt;span style=&quot;white-space: pre;&quot;&gt;&#x9;&lt;/span&gt;&amp;nbsp; &amp;nbsp; &amp;nbsp;recieving = 0&lt;/div&gt;&lt;div&gt;&lt;span style=&quot;white-space: pre;&quot;&gt;&#x9;&lt;/span&gt;&lt;span style=&quot;white-space: pre;&quot;&gt;&#x9;&lt;/span&gt;&amp;nbsp; &amp;nbsp; &amp;nbsp;data_in = shift&lt;/div&gt;&lt;div&gt;&lt;span style=&quot;white-space: pre;&quot;&gt;&#x9;&lt;/span&gt;&lt;span style=&quot;white-space: pre;&quot;&gt;&#x9;&lt;/span&gt;&amp;nbsp; &amp;nbsp; &amp;nbsp;ready = 1&lt;/div&gt;&lt;/blockquote&gt;" style="whiteSpace=wrap;html=1;align=left;" parent="1" vertex="1">
          <mxGeometry x="510" y="920" width="230" height="440" as="geometry" />
        </mxCell>
        <mxCell id="zQOek3tgbETVmvYBOYxM-3" value="" style="endArrow=classic;html=1;rounded=0;" parent="1" edge="1">
          <mxGeometry width="50" height="50" relative="1" as="geometry">
            <mxPoint x="430" y="1040" as="sourcePoint" />
            <mxPoint x="510" y="1040" as="targetPoint" />
          </mxGeometry>
        </mxCell>
        <mxCell id="zQOek3tgbETVmvYBOYxM-14" value="Rx" style="text;html=1;align=center;verticalAlign=middle;resizable=0;points=[];autosize=1;strokeColor=none;fillColor=none;" parent="1" vertex="1">
          <mxGeometry x="440" y="1010" width="40" height="30" as="geometry" />
        </mxCell>
        <mxCell id="zQOek3tgbETVmvYBOYxM-15" value="Memory" style="whiteSpace=wrap;html=1;" parent="1" vertex="1">
          <mxGeometry x="1060" y="920" width="160" height="240" as="geometry" />
        </mxCell>
        <mxCell id="zQOek3tgbETVmvYBOYxM-17" value="&lt;b&gt;&amp;nbsp; &amp;nbsp; Parallel Data Transfer&lt;/b&gt;&lt;div&gt;&lt;b&gt;&lt;br&gt;&lt;/b&gt;&lt;div&gt;&lt;b&gt;always @ (posedge clk, &lt;span style=&quot;white-space: pre;&quot;&gt;&#x9;&lt;/span&gt;&lt;span style=&quot;white-space: pre;&quot;&gt;&#x9;&lt;/span&gt;negedge nrst)&lt;/b&gt;&lt;/div&gt;&lt;div&gt;&lt;b&gt;&amp;nbsp; if (~nrst)&lt;/b&gt;&lt;/div&gt;&lt;div&gt;&lt;span style=&quot;white-space: pre;&quot;&gt;&#x9;&lt;/span&gt;data = 0&lt;/div&gt;&lt;div&gt;&lt;span style=&quot;white-space: pre;&quot;&gt;&#x9;&lt;/span&gt;ready = 0&lt;/div&gt;&lt;div&gt;&lt;b&gt;&amp;nbsp; if(ready)&lt;/b&gt;&lt;/div&gt;&lt;div&gt;&lt;span style=&quot;white-space: pre;&quot;&gt;&#x9;&lt;/span&gt;data_mem = data_in&lt;/div&gt;&lt;div&gt;&lt;span style=&quot;white-space: pre;&quot;&gt;&#x9;&lt;/span&gt;ready = 0&lt;/div&gt;&lt;/div&gt;" style="whiteSpace=wrap;html=1;align=left;" parent="1" vertex="1">
          <mxGeometry x="820" y="920" width="160" height="230" as="geometry" />
        </mxCell>
        <mxCell id="zQOek3tgbETVmvYBOYxM-19" value="data_in" style="text;html=1;align=center;verticalAlign=middle;resizable=0;points=[];autosize=1;strokeColor=none;fillColor=none;" parent="1" vertex="1">
          <mxGeometry x="745" y="990" width="60" height="30" as="geometry" />
        </mxCell>
        <mxCell id="zQOek3tgbETVmvYBOYxM-21" value="" style="endArrow=none;html=1;rounded=0;" parent="1" edge="1">
          <mxGeometry width="50" height="50" relative="1" as="geometry">
            <mxPoint x="770" y="1040" as="sourcePoint" />
            <mxPoint x="790" y="1020" as="targetPoint" />
          </mxGeometry>
        </mxCell>
        <mxCell id="zQOek3tgbETVmvYBOYxM-22" value="8" style="text;html=1;align=center;verticalAlign=middle;resizable=0;points=[];autosize=1;strokeColor=none;fillColor=none;" parent="1" vertex="1">
          <mxGeometry x="770" y="1030" width="30" height="30" as="geometry" />
        </mxCell>
        <mxCell id="zQOek3tgbETVmvYBOYxM-26" value="" style="edgeStyle=none;orthogonalLoop=1;jettySize=auto;html=1;endArrow=classic;startArrow=none;endSize=8;startSize=8;rounded=0;startFill=0;" parent="1" edge="1">
          <mxGeometry width="100" relative="1" as="geometry">
            <mxPoint x="740" y="1090" as="sourcePoint" />
            <mxPoint x="820" y="1090" as="targetPoint" />
            <Array as="points" />
          </mxGeometry>
        </mxCell>
        <mxCell id="zQOek3tgbETVmvYBOYxM-27" value="&lt;div&gt;&lt;br&gt;&lt;/div&gt;ready" style="text;html=1;align=center;verticalAlign=middle;resizable=0;points=[];autosize=1;strokeColor=none;fillColor=none;" parent="1" vertex="1">
          <mxGeometry x="755" y="1050" width="50" height="40" as="geometry" />
        </mxCell>
        <mxCell id="zQOek3tgbETVmvYBOYxM-32" style="edgeStyle=orthogonalEdgeStyle;rounded=0;orthogonalLoop=1;jettySize=auto;html=1;exitX=1;exitY=0.25;exitDx=0;exitDy=0;entryX=0.001;entryY=0.479;entryDx=0;entryDy=0;entryPerimeter=0;" parent="1" edge="1">
          <mxGeometry relative="1" as="geometry">
            <mxPoint x="980" y="1030" as="sourcePoint" />
            <mxPoint x="1060" y="1030" as="targetPoint" />
          </mxGeometry>
        </mxCell>
        <mxCell id="zQOek3tgbETVmvYBOYxM-33" value="data_mem" style="text;html=1;align=center;verticalAlign=middle;resizable=0;points=[];autosize=1;strokeColor=none;fillColor=none;" parent="1" vertex="1">
          <mxGeometry x="975" y="990" width="80" height="30" as="geometry" />
        </mxCell>
        <mxCell id="zQOek3tgbETVmvYBOYxM-34" value="" style="endArrow=none;html=1;rounded=0;" parent="1" edge="1">
          <mxGeometry width="50" height="50" relative="1" as="geometry">
            <mxPoint x="1010" y="1040" as="sourcePoint" />
            <mxPoint x="1030" y="1020" as="targetPoint" />
          </mxGeometry>
        </mxCell>
        <mxCell id="zQOek3tgbETVmvYBOYxM-35" value="8" style="text;html=1;align=center;verticalAlign=middle;resizable=0;points=[];autosize=1;strokeColor=none;fillColor=none;" parent="1" vertex="1">
          <mxGeometry x="1010" y="1030" width="30" height="30" as="geometry" />
        </mxCell>
        <mxCell id="EONkaieYPSGUkPehgWkg-1" value="" style="edgeStyle=none;orthogonalLoop=1;jettySize=auto;html=1;rounded=0;entryX=1.004;entryY=0.432;entryDx=0;entryDy=0;entryPerimeter=0;exitX=-0.001;exitY=0.825;exitDx=0;exitDy=0;exitPerimeter=0;" parent="1" edge="1">
          <mxGeometry width="100" relative="1" as="geometry">
            <mxPoint x="819.8399999999999" y="1099.75" as="sourcePoint" />
            <mxPoint x="740.8" y="1100.08" as="targetPoint" />
            <Array as="points" />
          </mxGeometry>
        </mxCell>
        <mxCell id="9Id_C44nwDwOBjQY_pvZ-1" value="" style="triangle;whiteSpace=wrap;html=1;" parent="1" vertex="1">
          <mxGeometry x="510" y="1320" width="30" height="40" as="geometry" />
        </mxCell>
        <mxCell id="9Id_C44nwDwOBjQY_pvZ-2" value="" style="ellipse;whiteSpace=wrap;html=1;" parent="1" vertex="1">
          <mxGeometry x="515" y="1360" width="20" height="20" as="geometry" />
        </mxCell>
        <mxCell id="9Id_C44nwDwOBjQY_pvZ-3" value="" style="triangle;whiteSpace=wrap;html=1;" parent="1" vertex="1">
          <mxGeometry x="820" y="1110" width="30" height="40" as="geometry" />
        </mxCell>
        <mxCell id="9Id_C44nwDwOBjQY_pvZ-4" value="" style="ellipse;whiteSpace=wrap;html=1;" parent="1" vertex="1">
          <mxGeometry x="825" y="1150" width="20" height="20" as="geometry" />
        </mxCell>
        <mxCell id="n4ZOIPBennIeKUP7Elqf-1" value="" style="edgeStyle=none;orthogonalLoop=1;jettySize=auto;html=1;rounded=0;" parent="1" edge="1">
          <mxGeometry width="100" relative="1" as="geometry">
            <mxPoint x="145" y="325" as="sourcePoint" />
            <mxPoint x="245" y="325" as="targetPoint" />
            <Array as="points" />
          </mxGeometry>
        </mxCell>
        <mxCell id="n4ZOIPBennIeKUP7Elqf-2" value="Rx" style="text;html=1;align=center;verticalAlign=middle;resizable=0;points=[];autosize=1;strokeColor=none;fillColor=none;" parent="1" vertex="1">
          <mxGeometry x="165" y="295" width="40" height="30" as="geometry" />
        </mxCell>
        <mxCell id="n4ZOIPBennIeKUP7Elqf-3" value="Recieve Indicator" style="whiteSpace=wrap;html=1;" parent="1" vertex="1">
          <mxGeometry x="245" y="280" width="130" height="165" as="geometry" />
        </mxCell>
        <mxCell id="n4ZOIPBennIeKUP7Elqf-4" value="" style="edgeStyle=none;orthogonalLoop=1;jettySize=auto;html=1;rounded=0;" parent="1" edge="1">
          <mxGeometry width="100" relative="1" as="geometry">
            <mxPoint x="375" y="342" as="sourcePoint" />
            <mxPoint x="475" y="342" as="targetPoint" />
            <Array as="points" />
          </mxGeometry>
        </mxCell>
        <mxCell id="n4ZOIPBennIeKUP7Elqf-5" value="receive_out" style="text;html=1;align=center;verticalAlign=middle;resizable=0;points=[];autosize=1;strokeColor=none;fillColor=none;" parent="1" vertex="1">
          <mxGeometry x="385" y="312" width="80" height="26" as="geometry" />
        </mxCell>
        <mxCell id="n4ZOIPBennIeKUP7Elqf-6" value="BAUD Counter" style="whiteSpace=wrap;html=1;" parent="1" vertex="1">
          <mxGeometry x="475" y="280" width="140" height="165" as="geometry" />
        </mxCell>
        <mxCell id="n4ZOIPBennIeKUP7Elqf-7" value="Bit Counter" style="whiteSpace=wrap;html=1;" parent="1" vertex="1">
          <mxGeometry x="715" y="280" width="135" height="165" as="geometry" />
        </mxCell>
        <mxCell id="n4ZOIPBennIeKUP7Elqf-8" value="" style="edgeStyle=none;orthogonalLoop=1;jettySize=auto;html=1;rounded=0;" parent="1" edge="1">
          <mxGeometry width="100" relative="1" as="geometry">
            <mxPoint x="615" y="340" as="sourcePoint" />
            <mxPoint x="715" y="340" as="targetPoint" />
            <Array as="points" />
          </mxGeometry>
        </mxCell>
        <mxCell id="n4ZOIPBennIeKUP7Elqf-9" value="&lt;div&gt;&lt;span style=&quot;background-color: initial;&quot;&gt;bit_count&lt;/span&gt;&lt;br&gt;&lt;/div&gt;" style="text;html=1;align=center;verticalAlign=middle;resizable=0;points=[];autosize=1;strokeColor=none;fillColor=none;" parent="1" vertex="1">
          <mxGeometry x="625" y="310" width="70" height="30" as="geometry" />
        </mxCell>
        <mxCell id="n4ZOIPBennIeKUP7Elqf-15" value="" style="triangle;whiteSpace=wrap;html=1;" parent="1" vertex="1">
          <mxGeometry x="475" y="410" width="25" height="35" as="geometry" />
        </mxCell>
        <mxCell id="n4ZOIPBennIeKUP7Elqf-16" value="" style="ellipse;whiteSpace=wrap;html=1;" parent="1" vertex="1">
          <mxGeometry x="480" y="445" width="16.25" height="15" as="geometry" />
        </mxCell>
        <mxCell id="n4ZOIPBennIeKUP7Elqf-17" value="" style="triangle;whiteSpace=wrap;html=1;" parent="1" vertex="1">
          <mxGeometry x="715" y="410" width="25" height="35" as="geometry" />
        </mxCell>
        <mxCell id="n4ZOIPBennIeKUP7Elqf-18" value="" style="ellipse;whiteSpace=wrap;html=1;" parent="1" vertex="1">
          <mxGeometry x="720" y="445" width="16.25" height="15" as="geometry" />
        </mxCell>
        <mxCell id="n4ZOIPBennIeKUP7Elqf-20" value="Shift Reg&lt;div&gt;{Rx, shift[7:1]}&lt;/div&gt;" style="whiteSpace=wrap;html=1;" parent="1" vertex="1">
          <mxGeometry x="720" y="565" width="130" height="160" as="geometry" />
        </mxCell>
        <mxCell id="n4ZOIPBennIeKUP7Elqf-21" value="" style="edgeStyle=none;orthogonalLoop=1;jettySize=auto;html=1;rounded=0;exitX=0.875;exitY=1;exitDx=0;exitDy=0;exitPerimeter=0;entryX=0;entryY=0.719;entryDx=0;entryDy=0;startArrow=oval;startFill=1;entryPerimeter=0;" parent="1" source="n4ZOIPBennIeKUP7Elqf-2" target="n4ZOIPBennIeKUP7Elqf-20" edge="1">
          <mxGeometry width="100" relative="1" as="geometry">
            <mxPoint x="330" y="600" as="sourcePoint" />
            <mxPoint x="430" y="600" as="targetPoint" />
            <Array as="points">
              <mxPoint x="200" y="680" />
            </Array>
          </mxGeometry>
        </mxCell>
        <mxCell id="n4ZOIPBennIeKUP7Elqf-24" value="" style="triangle;whiteSpace=wrap;html=1;" parent="1" vertex="1">
          <mxGeometry x="720" y="690" width="25" height="35" as="geometry" />
        </mxCell>
        <mxCell id="n4ZOIPBennIeKUP7Elqf-25" value="" style="ellipse;whiteSpace=wrap;html=1;" parent="1" vertex="1">
          <mxGeometry x="725" y="725" width="16.25" height="15" as="geometry" />
        </mxCell>
        <mxCell id="n4ZOIPBennIeKUP7Elqf-26" value="" style="edgeStyle=none;orthogonalLoop=1;jettySize=auto;html=1;rounded=0;entryX=0;entryY=0.5;entryDx=0;entryDy=0;" parent="1" target="n4ZOIPBennIeKUP7Elqf-36" edge="1">
          <mxGeometry width="100" relative="1" as="geometry">
            <mxPoint x="850" y="644.5" as="sourcePoint" />
            <mxPoint x="950" y="644.5" as="targetPoint" />
            <Array as="points">
              <mxPoint x="930" y="645" />
              <mxPoint x="930" y="421" />
            </Array>
          </mxGeometry>
        </mxCell>
        <mxCell id="n4ZOIPBennIeKUP7Elqf-27" value="shift" style="text;html=1;align=center;verticalAlign=middle;resizable=0;points=[];autosize=1;strokeColor=none;fillColor=none;" parent="1" vertex="1">
          <mxGeometry x="860" y="610" width="50" height="30" as="geometry" />
        </mxCell>
        <mxCell id="n4ZOIPBennIeKUP7Elqf-28" value="" style="edgeStyle=none;orthogonalLoop=1;jettySize=auto;html=1;rounded=0;entryX=0.5;entryY=0;entryDx=0;entryDy=0;" parent="1" target="n4ZOIPBennIeKUP7Elqf-20" edge="1">
          <mxGeometry width="100" relative="1" as="geometry">
            <mxPoint x="785" y="450" as="sourcePoint" />
            <mxPoint x="880" y="445" as="targetPoint" />
            <Array as="points" />
          </mxGeometry>
        </mxCell>
        <mxCell id="n4ZOIPBennIeKUP7Elqf-29" value="&lt;div&gt;&lt;span style=&quot;background-color: initial;&quot;&gt;bit_count&lt;/span&gt;&lt;br&gt;&lt;/div&gt;" style="text;html=1;align=center;verticalAlign=middle;resizable=0;points=[];autosize=1;strokeColor=none;fillColor=none;" parent="1" vertex="1">
          <mxGeometry x="780" y="470" width="70" height="30" as="geometry" />
        </mxCell>
        <mxCell id="n4ZOIPBennIeKUP7Elqf-30" value="" style="endArrow=none;html=1;rounded=0;" parent="1" edge="1">
          <mxGeometry width="50" height="50" relative="1" as="geometry">
            <mxPoint x="880" y="660" as="sourcePoint" />
            <mxPoint x="910" y="630" as="targetPoint" />
          </mxGeometry>
        </mxCell>
        <mxCell id="n4ZOIPBennIeKUP7Elqf-31" value="8" style="text;html=1;align=center;verticalAlign=middle;resizable=0;points=[];autosize=1;strokeColor=none;fillColor=none;" parent="1" vertex="1">
          <mxGeometry x="885" y="650" width="30" height="30" as="geometry" />
        </mxCell>
        <mxCell id="n4ZOIPBennIeKUP7Elqf-32" value="" style="edgeStyle=none;orthogonalLoop=1;jettySize=auto;html=1;rounded=0;" parent="1" edge="1">
          <mxGeometry width="100" relative="1" as="geometry">
            <mxPoint x="850" y="360" as="sourcePoint" />
            <mxPoint x="950" y="360" as="targetPoint" />
            <Array as="points" />
          </mxGeometry>
        </mxCell>
        <mxCell id="n4ZOIPBennIeKUP7Elqf-33" value="ready" style="text;html=1;align=center;verticalAlign=middle;resizable=0;points=[];autosize=1;strokeColor=none;fillColor=none;" parent="1" vertex="1">
          <mxGeometry x="865" y="330" width="50" height="30" as="geometry" />
        </mxCell>
        <mxCell id="n4ZOIPBennIeKUP7Elqf-34" value="" style="edgeStyle=none;orthogonalLoop=1;jettySize=auto;html=1;rounded=0;exitX=0.5;exitY=0;exitDx=0;exitDy=0;entryX=0.5;entryY=0;entryDx=0;entryDy=0;" parent="1" source="n4ZOIPBennIeKUP7Elqf-7" target="n4ZOIPBennIeKUP7Elqf-3" edge="1">
          <mxGeometry width="100" relative="1" as="geometry">
            <mxPoint x="720" y="240" as="sourcePoint" />
            <mxPoint x="820" y="240" as="targetPoint" />
            <Array as="points">
              <mxPoint x="783" y="210" />
              <mxPoint x="310" y="210" />
            </Array>
          </mxGeometry>
        </mxCell>
        <mxCell id="n4ZOIPBennIeKUP7Elqf-35" value="receive_in" style="text;html=1;align=center;verticalAlign=middle;resizable=0;points=[];autosize=1;strokeColor=none;fillColor=none;" parent="1" vertex="1">
          <mxGeometry x="792" y="240" width="73" height="26" as="geometry" />
        </mxCell>
        <mxCell id="n4ZOIPBennIeKUP7Elqf-36" value="Parity Check&amp;nbsp;&lt;div&gt;Register&lt;/div&gt;" style="whiteSpace=wrap;html=1;" parent="1" vertex="1">
          <mxGeometry x="950" y="332.5" width="150" height="177.5" as="geometry" />
        </mxCell>
        <mxCell id="n4ZOIPBennIeKUP7Elqf-37" value="" style="edgeStyle=none;orthogonalLoop=1;jettySize=auto;html=1;rounded=0;" parent="1" edge="1">
          <mxGeometry width="100" relative="1" as="geometry">
            <mxPoint x="1100" y="420.75" as="sourcePoint" />
            <mxPoint x="1200" y="420.75" as="targetPoint" />
            <Array as="points" />
          </mxGeometry>
        </mxCell>
        <mxCell id="n4ZOIPBennIeKUP7Elqf-38" value="data_mem" style="text;html=1;align=center;verticalAlign=middle;resizable=0;points=[];autosize=1;strokeColor=none;fillColor=none;" parent="1" vertex="1">
          <mxGeometry x="1110" y="370" width="80" height="30" as="geometry" />
        </mxCell>
        <mxCell id="n4ZOIPBennIeKUP7Elqf-39" value="" style="endArrow=none;html=1;rounded=0;" parent="1" edge="1">
          <mxGeometry width="50" height="50" relative="1" as="geometry">
            <mxPoint x="1135" y="436.25" as="sourcePoint" />
            <mxPoint x="1165" y="406.25" as="targetPoint" />
          </mxGeometry>
        </mxCell>
        <mxCell id="n4ZOIPBennIeKUP7Elqf-40" value="8" style="text;html=1;align=center;verticalAlign=middle;resizable=0;points=[];autosize=1;strokeColor=none;fillColor=none;" parent="1" vertex="1">
          <mxGeometry x="1137.5" y="422.5" width="30" height="30" as="geometry" />
        </mxCell>
        <mxCell id="n4ZOIPBennIeKUP7Elqf-41" value="Memory" style="whiteSpace=wrap;html=1;" parent="1" vertex="1">
          <mxGeometry x="1200" y="330" width="140" height="180" as="geometry" />
        </mxCell>
        <mxCell id="n4ZOIPBennIeKUP7Elqf-44" value="" style="triangle;whiteSpace=wrap;html=1;" parent="1" vertex="1">
          <mxGeometry x="950" y="475" width="25" height="35" as="geometry" />
        </mxCell>
        <mxCell id="n4ZOIPBennIeKUP7Elqf-45" value="" style="ellipse;whiteSpace=wrap;html=1;" parent="1" vertex="1">
          <mxGeometry x="955" y="510" width="16.25" height="15" as="geometry" />
        </mxCell>
      </root>
    </mxGraphModel>
  </diagram>
</mxfile>
